<svg width="300" height="300" xmlns="http://www.w3.org/2000/svg">
  <rect width="300" height="300" fill="white" rx="12"/>
  <rect x="10" y="10" width="280" height="280" fill="none" stroke="#e5e7eb" stroke-width="2" rx="8"/>
  <!-- QR pattern corners -->
  <rect x="20" y="20" width="70" height="70" fill="none" stroke="#1e293b" stroke-width="5" rx="4"/>
  <rect x="30" y="30" width="50" height="50" fill="#1e293b" rx="2"/>
  <rect x="210" y="20" width="70" height="70" fill="none" stroke="#1e293b" stroke-width="5" rx="4"/>
  <rect x="220" y="30" width="50" height="50" fill="#1e293b" rx="2"/>
  <rect x="20" y="210" width="70" height="70" fill="none" stroke="#1e293b" stroke-width="5" rx="4"/>
  <rect x="30" y="220" width="50" height="50" fill="#1e293b" rx="2"/>
  <!-- Center content -->
  <rect x="105" y="105" width="90" height="90" fill="#f97316" rx="8"/>
  <text x="150" y="158" text-anchor="middle" fill="white" font-size="32" font-weight="bold" font-family="Arial">A</text>
  <!-- Data modules placeholder -->
  <g fill="#1e293b">
    <rect x="110" y="20" width="10" height="10"/><rect x="130" y="20" width="10" height="10"/>
    <rect x="150" y="20" width="10" height="10"/><rect x="170" y="20" width="10" height="10"/>
    <rect x="110" y="40" width="10" height="10"/><rect x="150" y="40" width="10" height="10"/>
    <rect x="110" y="60" width="10" height="10"/><rect x="130" y="60" width="10" height="10"/>
    <rect x="170" y="60" width="10" height="10"/>
    <rect x="20" y="110" width="10" height="10"/><rect x="40" y="110" width="10" height="10"/>
    <rect x="60" y="110" width="10" height="10"/><rect x="20" y="130" width="10" height="10"/>
    <rect x="60" y="130" width="10" height="10"/><rect x="20" y="150" width="10" height="10"/>
    <rect x="40" y="150" width="10" height="10"/><rect x="60" y="150" width="10" height="10"/>
    <rect x="20" y="170" width="10" height="10"/><rect x="60" y="170" width="10" height="10"/>
    <rect x="220" y="110" width="10" height="10"/><rect x="240" y="110" width="10" height="10"/>
    <rect x="260" y="110" width="10" height="10"/><rect x="220" y="130" width="10" height="10"/>
    <rect x="260" y="130" width="10" height="10"/><rect x="220" y="150" width="10" height="10"/>
    <rect x="240" y="150" width="10" height="10"/><rect x="260" y="150" width="10" height="10"/>
    <rect x="220" y="170" width="10" height="10"/><rect x="260" y="170" width="10" height="10"/>
    <rect x="110" y="220" width="10" height="10"/><rect x="130" y="220" width="10" height="10"/>
    <rect x="160" y="220" width="10" height="10"/><rect x="110" y="240" width="10" height="10"/>
    <rect x="150" y="240" width="10" height="10"/><rect x="170" y="240" width="10" height="10"/>
    <rect x="120" y="260" width="10" height="10"/><rect x="140" y="260" width="10" height="10"/>
    <rect x="160" y="260" width="10" height="10"/>
  </g>
  <text x="150" y="295" text-anchor="middle" fill="#6b7280" font-size="10" font-family="Arial">Replace with your real UPI QR</text>
</svg>
